<mxfile host="app.diagrams.net" modified="2022-04-14T07:58:56.280Z" agent="5.0 (Macintosh; Intel Mac OS X 10_15_7) AppleWebKit/537.36 (KHTML, like Gecko) Chrome/90.0.4430.212 Safari/537.36" etag="s2ESavoOM4vIpLCG0QyH" version="17.2.4" type="github">
  <diagram id="SVAAwT6SWPQ9sywQ4NoO" name="Page-1">
    <mxGraphModel dx="1298" dy="834" grid="1" gridSize="10" guides="1" tooltips="1" connect="1" arrows="1" fold="1" page="1" pageScale="1" pageWidth="827" pageHeight="1169" math="0" shadow="0">
      <root>
        <mxCell id="0" />
        <mxCell id="1" parent="0" />
        <mxCell id="Vi2bw0-ivXvQs_Bz7Diw-5" value="" style="edgeStyle=orthogonalEdgeStyle;rounded=0;orthogonalLoop=1;jettySize=auto;html=1;" edge="1" parent="1" source="Vi2bw0-ivXvQs_Bz7Diw-1" target="Vi2bw0-ivXvQs_Bz7Diw-2">
          <mxGeometry relative="1" as="geometry" />
        </mxCell>
        <mxCell id="Vi2bw0-ivXvQs_Bz7Diw-1" value="start" style="ellipse;whiteSpace=wrap;html=1;" vertex="1" parent="1">
          <mxGeometry x="147" y="130" width="120" height="80" as="geometry" />
        </mxCell>
        <mxCell id="Vi2bw0-ivXvQs_Bz7Diw-6" value="" style="edgeStyle=orthogonalEdgeStyle;rounded=0;orthogonalLoop=1;jettySize=auto;html=1;" edge="1" parent="1" source="Vi2bw0-ivXvQs_Bz7Diw-2" target="Vi2bw0-ivXvQs_Bz7Diw-3">
          <mxGeometry relative="1" as="geometry" />
        </mxCell>
        <mxCell id="Vi2bw0-ivXvQs_Bz7Diw-2" value="create image" style="rounded=1;whiteSpace=wrap;html=1;" vertex="1" parent="1">
          <mxGeometry x="147" y="270" width="120" height="60" as="geometry" />
        </mxCell>
        <mxCell id="Vi2bw0-ivXvQs_Bz7Diw-7" value="" style="edgeStyle=orthogonalEdgeStyle;rounded=0;orthogonalLoop=1;jettySize=auto;html=1;" edge="1" parent="1" source="Vi2bw0-ivXvQs_Bz7Diw-3" target="Vi2bw0-ivXvQs_Bz7Diw-4">
          <mxGeometry relative="1" as="geometry" />
        </mxCell>
        <mxCell id="Vi2bw0-ivXvQs_Bz7Diw-3" value="upload image to oss bucket" style="rounded=1;whiteSpace=wrap;html=1;" vertex="1" parent="1">
          <mxGeometry x="147" y="380" width="120" height="60" as="geometry" />
        </mxCell>
        <mxCell id="Vi2bw0-ivXvQs_Bz7Diw-9" value="" style="edgeStyle=orthogonalEdgeStyle;rounded=0;orthogonalLoop=1;jettySize=auto;html=1;" edge="1" parent="1" source="Vi2bw0-ivXvQs_Bz7Diw-4" target="Vi2bw0-ivXvQs_Bz7Diw-8">
          <mxGeometry relative="1" as="geometry" />
        </mxCell>
        <mxCell id="Vi2bw0-ivXvQs_Bz7Diw-4" value="import image from oss" style="rounded=1;whiteSpace=wrap;html=1;" vertex="1" parent="1">
          <mxGeometry x="353" y="380" width="120" height="60" as="geometry" />
        </mxCell>
        <mxCell id="Vi2bw0-ivXvQs_Bz7Diw-8" value="create desktop base on image" style="rounded=1;whiteSpace=wrap;html=1;" vertex="1" parent="1">
          <mxGeometry x="560" y="380" width="120" height="60" as="geometry" />
        </mxCell>
        <mxCell id="Vi2bw0-ivXvQs_Bz7Diw-10" value="" style="endArrow=none;dashed=1;html=1;dashPattern=1 3;strokeWidth=2;rounded=0;" edge="1" parent="1">
          <mxGeometry width="50" height="50" relative="1" as="geometry">
            <mxPoint x="313" y="730" as="sourcePoint" />
            <mxPoint x="313" y="10" as="targetPoint" />
          </mxGeometry>
        </mxCell>
        <mxCell id="Vi2bw0-ivXvQs_Bz7Diw-11" value="GWS用户账户" style="text;html=1;strokeColor=none;fillColor=none;align=center;verticalAlign=middle;whiteSpace=wrap;rounded=0;" vertex="1" parent="1">
          <mxGeometry x="177" y="40" width="86" height="30" as="geometry" />
        </mxCell>
        <mxCell id="Vi2bw0-ivXvQs_Bz7Diw-14" value="无影客户账户" style="text;html=1;strokeColor=none;fillColor=none;align=center;verticalAlign=middle;whiteSpace=wrap;rounded=0;" vertex="1" parent="1">
          <mxGeometry x="474" y="40" width="86" height="30" as="geometry" />
        </mxCell>
        <mxCell id="Vi2bw0-ivXvQs_Bz7Diw-15" value="" style="endArrow=none;dashed=1;html=1;dashPattern=1 3;strokeWidth=2;rounded=0;" edge="1" parent="1">
          <mxGeometry width="50" height="50" relative="1" as="geometry">
            <mxPoint x="750" y="730" as="sourcePoint" />
            <mxPoint x="750" y="10" as="targetPoint" />
          </mxGeometry>
        </mxCell>
      </root>
    </mxGraphModel>
  </diagram>
</mxfile>
